<?xml version="1.0" standalone="no"?>
<!DOCTYPE svg PUBLIC "-//W3C//DTD SVG 20010904//EN"
 "http://www.w3.org/TR/2001/REC-SVG-20010904/DTD/svg10.dtd">
<svg version="1.0" xmlns="http://www.w3.org/2000/svg"
 width="500.000000pt" height="500.000000pt" viewBox="0 0 500.000000 500.000000"
 preserveAspectRatio="xMidYMid meet">

<g transform="translate(0.000000,500.000000) scale(0.100000,-0.100000)"
fill="#000000" stroke="none">
<path d="M1377 4243 c-4 -3 -7 -19 -7 -35 0 -25 3 -28 35 -28 33 0 35 2 35 35
0 32 -3 35 -28 35 -16 0 -32 -3 -35 -7z"/>
<path d="M3530 4180 c0 -13 7 -20 20 -20 14 0 20 6 19 23 0 21 -1 21 -9 2 -7
-17 -9 -17 -9 -2 -1 24 -21 22 -21 -3z"/>
<path d="M3660 4019 c0 -25 33 -22 38 4 2 12 -3 17 -17 17 -15 0 -21 -6 -21
-21z"/>
<path d="M3392 3983 l3 -48 48 -3 47 -3 0 50 0 51 -51 0 -50 0 3 -47z"/>
<path d="M1370 3990 c0 -27 3 -30 30 -30 27 0 30 3 30 30 0 27 -3 30 -30 30
-27 0 -30 -3 -30 -30z"/>
<path d="M1530 3900 l0 -60 60 0 60 0 0 60 0 60 -60 0 -60 0 0 -60z"/>
<path d="M3578 3832 c-3 -9 -6 -54 -7 -98 l-2 -81 81 -1 c58 0 80 3 77 11 -4
11 -13 13 -47 7 -8 -1 -34 -2 -57 -1 l-43 1 0 58 c0 42 3 53 11 42 7 -11 9 -4
4 25 l-6 40 46 -3 c26 -3 52 1 58 7 8 8 -5 11 -50 11 -50 0 -62 -3 -65 -18z"/>
<path d="M3720 3836 c0 -13 -12 -16 -62 -16 -76 0 -73 -8 5 -11 l57 -2 0 -35
c0 -20 2 -33 5 -30 9 9 12 98 4 104 -5 3 -9 -2 -9 -10z"/>
<path d="M2493 3776 c-130 -42 -225 -145 -252 -274 -6 -29 -11 -112 -11 -185
-1 -245 -27 -347 -131 -502 -39 -58 -82 -114 -95 -124 -13 -10 -24 -26 -24
-34 0 -9 -32 -76 -70 -151 -92 -178 -130 -273 -130 -329 0 -42 -2 -46 -30 -52
-18 -4 -45 -25 -69 -54 -33 -39 -52 -52 -98 -66 -32 -9 -68 -23 -80 -31 -20
-13 -24 -24 -38 -106 -3 -21 -21 -55 -40 -78 -28 -34 -35 -51 -35 -85 0 -40
-2 -43 -31 -49 -17 -3 -77 -6 -133 -7 -55 0 -130 -6 -166 -14 -74 -15 -67 -18
40 -16 41 0 88 -3 104 -7 27 -7 23 -9 -40 -21 -38 -6 -109 -23 -159 -36 -77
-20 -84 -23 -50 -24 30 -1 36 -4 25 -11 -8 -5 -76 -11 -150 -12 l-135 -2 115
-5 c106 -6 112 -7 70 -16 l-45 -10 80 -6 80 -5 -105 -2 c-78 -2 -127 -9 -189
-27 -46 -14 -86 -27 -89 -30 -3 -3 47 -5 112 -5 115 0 186 14 281 54 92 40
175 59 286 67 66 4 125 6 132 4 6 -2 28 0 47 4 l35 9 -45 2 c-25 1 -54 6 -65
11 -13 5 11 7 69 4 49 -2 91 -7 94 -10 3 -3 -2 -5 -11 -5 -9 0 -17 -4 -17 -10
0 -5 16 -9 35 -8 19 1 38 -2 42 -5 3 -4 -12 -7 -34 -7 -24 0 -46 -6 -53 -15
-10 -11 -36 -15 -111 -15 -59 0 -99 -4 -99 -10 0 -6 -30 -9 -72 -8 -73 2 -73
2 -13 5 33 2 69 7 80 12 11 5 38 13 60 18 34 7 27 8 -50 11 -88 3 -215 -21
-215 -40 0 -5 -10 -8 -23 -8 -13 0 -58 -13 -101 -28 l-78 -29 264 -8 c144 -4
286 -8 315 -9 28 0 55 -4 59 -8 4 -5 29 -8 55 -8 47 0 72 -13 47 -24 -7 -3 -2
-5 12 -5 52 2 71 -1 65 -11 -3 -6 -17 -7 -30 -4 -24 6 -52 -10 -129 -74 -30
-24 -49 -32 -81 -32 -31 0 -58 -11 -112 -44 -42 -27 -87 -46 -110 -49 l-38 -4
43 -1 c36 -2 55 6 113 43 53 35 79 45 110 45 33 0 55 10 119 55 77 54 97 65
85 45 -11 -17 111 -12 125 5 7 8 24 15 39 15 20 0 23 -2 11 -10 -11 -7 -7 -10
18 -10 17 0 32 -4 32 -10 0 -5 -24 -10 -53 -10 -41 0 -56 -5 -70 -21 -10 -11
-21 -18 -24 -15 -3 3 0 12 7 21 11 13 5 15 -51 15 -60 0 -68 -3 -128 -48 l-64
-47 54 -5 53 -5 -29 -15 c-29 -15 -28 -15 58 -18 62 -2 94 1 105 10 13 12 14
10 3 -10 -10 -18 -18 -22 -48 -18 -32 3 -42 -2 -83 -40 -43 -40 -51 -44 -100
-44 -51 0 -55 -2 -127 -66 -40 -37 -72 -69 -69 -71 7 -7 34 14 100 75 54 49
60 52 111 52 49 0 57 3 96 41 32 30 48 39 69 37 28 -3 28 -3 -32 -68 -158
-170 -210 -231 -204 -238 7 -7 92 81 163 170 43 53 42 53 210 40 l83 -7 -40
-62 c-21 -34 -35 -65 -31 -68 5 -3 30 29 56 70 l46 75 62 2 62 1 -55 7 -55 6
55 5 55 5 -63 2 -63 2 16 30 c14 27 20 30 65 30 46 0 50 2 66 35 12 26 23 35
40 35 21 0 24 -3 18 -28 -4 -15 -11 -31 -15 -36 -5 -6 -9 -18 -9 -28 0 -23
-17 -23 -23 -1 -4 14 -5 12 -6 -4 0 -13 3 -23 8 -23 17 0 -14 -69 -37 -80 -34
-15 -22 -35 25 -38 l40 -3 -23 -65 c-13 -36 -24 -69 -24 -74 0 -6 78 -10 195
-10 l195 0 0 -125 c0 -120 1 -125 21 -125 21 0 21 2 14 135 -4 74 -10 169 -14
211 l-6 76 -166 -1 c-147 -2 -168 0 -188 16 -22 18 -22 20 -7 56 9 20 23 53
31 72 12 29 20 35 44 35 18 0 35 8 43 19 13 18 16 18 48 4 32 -14 33 -16 15
-23 -19 -8 -18 -9 4 -9 20 -1 23 3 19 24 -3 14 -1 25 3 25 5 0 9 -4 9 -10 0
-5 5 -10 11 -10 5 0 7 5 4 10 -3 6 -2 10 4 10 13 0 26 -69 15 -80 -5 -4 -18
-10 -29 -13 -11 -2 -2 -5 20 -6 22 -1 88 -4 147 -7 58 -3 108 -1 111 3 3 4 -6
51 -19 103 -27 110 -27 110 -15 110 5 0 11 -10 13 -22 2 -15 11 -24 25 -26 22
-3 22 -3 8 39 -20 55 -18 71 3 34 17 -32 19 -36 21 -60 1 -11 13 -15 46 -15
25 0 45 -4 45 -9 0 -6 -16 -7 -35 -4 -25 4 -35 2 -35 -7 0 -24 23 -90 32 -90
4 0 8 -7 8 -15 0 -8 4 -15 10 -15 5 0 7 7 4 15 -7 17 30 20 87 8 l34 -8 -45
-6 -45 -6 50 -3 50 -3 -55 -6 c-48 -6 -39 -8 70 -15 80 -5 138 -4 160 2 32 9
28 10 -38 11 -72 1 -112 12 -112 31 0 6 60 10 148 10 l148 0 29 -30 c26 -27
34 -30 96 -30 47 0 70 -4 79 -15 11 -13 -3 -15 -113 -15 l-125 0 -37 43 c-20
23 -33 33 -29 22 4 -11 20 -32 35 -47 27 -28 28 -28 162 -28 130 0 137 -1 165
-25 17 -14 43 -25 59 -25 19 0 43 -14 78 -45 135 -123 176 -157 182 -151 3 3
4 7 2 9 -18 12 -196 175 -202 185 -4 6 -25 12 -45 12 -28 0 -44 7 -63 27 -40
44 -129 115 -129 104 0 -5 5 -13 10 -16 21 -13 8 -20 -39 -20 -34 0 -55 6 -70
19 -27 24 -27 36 1 36 21 0 21 0 2 21 l-18 20 84 -1 c153 -2 211 0 206 8 -3 5
-32 27 -66 50 -55 38 -66 42 -123 42 l-62 -1 27 -24 27 -23 -72 -4 c-40 -2
-83 -1 -97 2 -14 3 13 7 60 10 l85 5 -32 20 c-18 10 -33 22 -33 25 0 3 29 3
65 2 67 -4 77 1 48 24 -16 12 -15 13 12 14 42 0 76 11 69 21 -8 13 30 11 43
-2 6 -6 21 -9 34 -6 l24 4 -22 8 c-13 4 -23 11 -23 15 0 9 400 21 711 21 137
0 237 4 229 8 -37 21 -177 51 -243 53 -68 1 -69 1 -22 7 l50 6 -37 8 c-21 4
-38 12 -38 17 0 6 -12 10 -27 11 -16 0 -37 4 -48 9 -15 6 -8 9 30 10 l50 2
-70 18 c-38 10 -106 26 -150 36 l-80 19 65 7 c36 4 86 4 113 1 31 -4 47 -2 47
6 0 6 -13 11 -30 11 -16 0 -51 4 -77 10 -26 5 -129 11 -228 14 -99 2 -192 9
-206 15 -15 5 -29 20 -33 35 -4 16 -23 35 -51 52 -72 42 -90 75 -89 164 0 50
8 98 23 145 33 100 32 230 -2 342 -42 135 -90 231 -203 408 -92 145 -114 228
-143 537 -20 211 -91 341 -219 401 -61 29 -77 32 -177 34 -72 2 -124 -2 -152
-11z m239 -347 c13 -5 34 -26 48 -46 48 -70 20 -208 -40 -201 -17 2 -24 8 -21
18 3 8 7 37 9 63 5 55 -15 87 -54 87 -29 0 -64 -44 -64 -81 0 -29 -13 -36 -39
-20 -10 6 -12 24 -9 63 5 57 27 99 63 117 27 13 79 13 107 0z m-343 -23 c26
-27 45 -88 36 -116 -8 -26 -25 -26 -25 0 0 20 -33 60 -49 60 -5 0 -17 -7 -26
-17 -13 -12 -16 -30 -13 -76 4 -70 -14 -87 -32 -31 -16 47 -9 144 13 178 22
34 65 35 96 2z m-11 -87 c-2 -6 -8 -10 -13 -10 -5 0 -11 4 -13 10 -2 6 4 11
13 11 9 0 15 -5 13 -11z m332 -4 c0 -8 -7 -15 -15 -15 -8 0 -15 7 -15 15 0 8
7 15 15 15 8 0 15 -7 15 -15z m-108 -96 c42 -21 100 -44 127 -50 56 -12 81
-37 81 -81 0 -32 -32 -56 -110 -84 -25 -9 -85 -35 -133 -56 -110 -50 -135 -47
-198 20 -74 78 -97 111 -40 55 64 -62 83 -65 164 -28 31 15 89 35 129 46 85
23 148 48 148 61 0 11 -24 10 -36 -2 -6 -6 -51 -21 -100 -34 -49 -14 -114 -36
-144 -50 -81 -38 -97 -35 -163 32 -32 32 -57 67 -57 78 0 33 104 113 171 132
45 13 70 7 161 -39z m236 -245 c7 -36 30 -101 52 -145 22 -44 43 -101 47 -127
3 -26 16 -67 29 -92 68 -134 94 -268 77 -397 -9 -68 -14 -83 -42 -111 -18 -17
-41 -32 -51 -32 -10 0 -32 -11 -47 -24 -28 -24 -28 -25 -34 -176 l-6 -151 -36
-37 c-47 -48 -129 -98 -215 -130 -56 -21 -84 -25 -172 -25 -89 0 -114 4 -167
26 -84 34 -146 79 -193 139 -45 56 -49 68 -20 68 28 0 40 37 29 92 -12 66 -30
106 -90 194 l-53 78 11 86 c13 97 58 236 101 314 17 29 44 95 62 146 17 52 53
133 80 180 27 47 56 104 66 128 9 23 20 42 25 42 4 0 25 -21 46 -46 70 -85
126 -94 238 -41 39 19 102 46 140 60 39 15 77 32 85 37 24 15 25 14 38 -56z
m219 -349 c0 -8 -4 -15 -9 -15 -4 0 -8 7 -8 15 0 8 4 15 8 15 5 0 9 -7 9 -15z
m-1096 -97 c-17 -35 -31 -59 -31 -53 0 14 53 126 58 121 2 -3 -10 -33 -27 -68z
m1196 -115 c-3 -10 -5 -2 -5 17 0 19 2 27 5 18 2 -10 2 -26 0 -35z m-1239 7
c-7 -10 -14 -17 -17 -15 -4 4 18 35 25 35 2 0 -1 -9 -8 -20z m-21 -142 c-3 -8
-6 -5 -6 6 -1 11 2 17 5 13 3 -3 4 -12 1 -19z m-73 -189 c34 -27 98 -135 142
-240 19 -46 43 -102 53 -124 80 -168 85 -181 85 -230 0 -86 -44 -129 -137
-134 -53 -3 -113 23 -200 87 -27 19 -110 67 -185 106 -188 98 -211 134 -143
225 30 40 41 66 47 108 3 29 13 60 20 68 8 7 40 21 72 30 46 14 66 27 106 71
56 61 93 70 140 33z m1130 -99 c-8 -76 9 -143 45 -171 20 -17 36 -20 73 -17
58 6 100 40 152 121 20 31 43 57 51 57 25 0 53 -36 65 -82 23 -91 29 -99 130
-176 32 -25 39 -57 18 -95 -16 -31 -40 -50 -148 -121 -52 -35 -129 -91 -172
-124 -126 -102 -198 -123 -283 -82 -41 20 -75 69 -75 108 0 9 13 62 29 117 36
125 55 290 46 393 -6 70 -5 80 15 105 12 15 30 27 41 27 18 0 19 -5 13 -60z
m118 -150 c25 0 29 -3 18 -10 -23 -15 -46 -12 -71 11 -23 19 -23 20 -2 10 12
-6 37 -11 55 -11z m633 -210 c13 -5 -20 -8 -87 -7 -60 0 -108 5 -108 9 0 11
169 9 195 -2z m-201 -44 c-6 -16 -24 -23 -24 -8 0 10 22 33 27 28 2 -2 1 -11
-3 -20z m107 8 c28 -9 47 -20 42 -23 -31 -23 18 -49 97 -52 l35 -2 -35 -7
c-22 -5 -27 -8 -13 -9 12 0 25 -5 28 -11 8 -12 -47 -13 -60 -1 -6 5 -26 12
-45 15 l-35 6 35 -14 c34 -14 34 -14 -48 -15 -53 -1 -81 3 -77 9 3 6 18 8 33
5 23 -4 24 -4 7 4 -11 5 -42 10 -70 10 -39 0 -46 -3 -30 -10 18 -9 18 -9 -2
-4 -13 3 -33 8 -45 12 -16 4 -19 3 -13 -7 5 -8 3 -11 -5 -8 -24 8 -21 24 5 36
15 7 24 8 21 4 -3 -5 9 -6 27 -3 23 3 27 6 12 9 -26 5 -44 22 -24 23 7 1 51 0
97 -1 53 -1 82 2 82 9 0 6 -6 11 -12 11 -16 1 -76 28 -65 29 5 1 31 -6 58 -15z
m-56 -14 c16 -7 14 -8 -12 -7 -17 1 -29 5 -26 10 5 9 12 8 38 -3z m-2192 -7
c-13 -2 -33 -2 -45 0 -13 2 -3 4 22 4 25 0 35 -2 23 -4z m2395 0 c-15 -2 -42
-2 -60 0 -18 2 -6 4 27 4 33 0 48 -2 33 -4z m-2658 -47 c0 -3 -4 -8 -10 -11
-5 -3 -10 -1 -10 4 0 6 5 11 10 11 6 0 10 -2 10 -4z m2783 -13 c-13 -2 -33 -2
-45 0 -13 2 -3 4 22 4 25 0 35 -2 23 -4z m105 0 c-10 -2 -28 -2 -40 0 -13 2
-5 4 17 4 22 1 32 -1 23 -4z m-598 -29 c0 -2 -12 -4 -27 -4 -21 0 -24 3 -14 9
13 8 41 5 41 -5z m130 6 c0 -5 -5 -10 -11 -10 -5 0 -7 5 -4 10 3 6 8 10 11 10
2 0 4 -4 4 -10z m424 0 c-7 -7 -19 -7 -35 -1 -23 9 -22 10 11 10 23 1 31 -2
24 -9z m113 4 c-3 -3 -12 -4 -19 -1 -8 3 -5 6 6 6 11 1 17 -2 13 -5z m-2422
-11 c-16 -3 -34 -9 -40 -14 -7 -7 -3 -8 9 -3 12 5 17 4 13 -3 -4 -6 -17 -13
-29 -16 -13 -2 -32 -8 -43 -12 -16 -5 -17 -5 -5 4 13 9 12 11 -6 11 -15 0 -24
-8 -28 -25 -6 -22 -11 -25 -49 -24 -34 2 -36 3 -12 6 17 3 35 9 40 14 7 7 -14
9 -60 5 -69 -5 -69 -5 -30 8 25 9 33 15 20 16 -18 1 -17 3 5 11 14 6 41 8 61
5 21 -3 53 0 75 8 22 8 55 14 74 14 33 -1 33 -1 5 -5z m2457 -41 c37 -14 66
-27 64 -29 -2 -2 -37 8 -79 22 -42 14 -85 25 -96 25 -11 0 -23 5 -26 11 -10
16 58 1 137 -29z m-2939 21 c-7 -2 -19 -2 -25 0 -7 3 -2 5 12 5 14 0 19 -2 13
-5z m2457 -1 c31 -6 28 -7 -30 -12 -36 -4 -78 -2 -94 3 -19 7 -35 6 -46 -1
-13 -7 -32 -7 -71 3 -53 13 -53 13 76 14 72 0 146 -3 165 -7z m252 1 c-40 -2
-103 -2 -140 0 -37 2 -4 3 73 3 77 0 107 -2 67 -3z m241 0 c-7 -2 -19 -2 -25
0 -7 3 -2 5 12 5 14 0 19 -2 13 -5z m-605 -39 c18 -8 32 -17 32 -18 0 -5 -45
-1 -50 5 -3 3 -14 11 -25 17 -32 18 6 15 43 -4z m187 5 c4 -6 17 -14 29 -19
16 -7 17 -9 4 -9 -9 -1 -24 6 -33 15 -16 17 -65 12 -65 -6 0 -6 -8 -10 -17
-10 -15 0 -14 2 3 19 21 22 69 27 79 10z m-391 -5 c28 -11 17 -19 -23 -19 -33
0 -36 1 -22 12 19 14 24 15 45 7z m293 0 c-3 -3 -12 -4 -19 -1 -8 3 -5 6 6 6
11 1 17 -2 13 -5z m-2200 -20 c-3 -3 -12 -4 -19 -1 -8 3 -5 6 6 6 11 1 17 -2
13 -5z m1253 -8 c0 -2 3 -11 6 -20 5 -13 -1 -16 -25 -16 -24 0 -31 4 -31 20 0
15 7 20 25 20 14 0 25 -2 25 -4z m46 -32 c8 -20 13 -38 11 -40 -2 -2 -11 14
-20 36 -19 50 -12 53 9 4z m-321 -59 c83 -2 162 -4 178 -4 22 -1 27 -6 27 -25
0 -18 7 -26 23 -29 19 -4 18 -4 -5 -6 -24 -1 -28 3 -28 24 0 19 -5 25 -22 25
-22 0 -23 -3 -21 -67 3 -78 -3 -74 -12 10 -6 55 -8 57 -35 57 -16 0 -32 -4
-35 -10 -3 -5 0 -7 8 -4 10 4 14 -4 13 -31 -1 -19 -4 -35 -7 -35 -3 0 -5 -17
-3 -37 2 -25 0 -32 -7 -23 -7 12 -9 10 -9 -7 0 -12 6 -23 13 -26 6 -2 10 -7 7
-10 -12 -13 -27 10 -33 48 -3 22 -3 31 0 20 6 -20 6 -20 13 0 4 11 5 28 2 37
-5 19 -14 20 -190 18 -64 -1 -92 2 -87 9 4 7 57 11 138 12 73 0 126 3 119 6
-6 2 -10 9 -7 14 4 5 -2 6 -11 2 -12 -4 -15 -3 -10 5 5 9 -34 12 -158 11 -150
-2 -167 -4 -183 -21 -14 -16 -15 -20 -3 -18 35 5 90 -1 90 -10 0 -11 -122 -14
-133 -4 -3 4 1 17 10 30 l15 24 -43 0 c-59 0 -38 18 26 22 28 2 86 2 130 0 44
-2 148 -5 230 -7z m437 -30 c16 -21 28 -25 68 -25 27 0 51 -4 54 -8 3 -5 -8
-7 -23 -4 -32 4 -52 -15 -30 -29 10 -6 5 -8 -16 -8 -16 0 -24 3 -17 6 23 9 12
23 -18 23 -19 0 -30 5 -28 13 1 6 -3 22 -10 35 -17 30 -5 28 20 -3z m-537 -5
c-3 -5 -21 -9 -38 -9 l-32 2 35 7 c19 4 36 8 38 9 2 0 0 -3 -3 -9z m843 -27
c-10 -2 -28 -2 -40 0 -13 2 -5 4 17 4 22 1 32 -1 23 -4z m-1110 -67 c-22 -16
-23 -23 -3 -23 8 0 15 4 15 9 0 4 17 9 38 9 37 1 37 1 7 9 l-30 8 33 1 c42 1
39 -21 -4 -30 l-29 -6 30 -5 c17 -3 -6 -6 -50 -6 -49 -1 -75 2 -66 7 7 5 11
13 7 19 -6 10 16 18 54 20 12 1 11 -1 -2 -12z m-83 -31 c-24 -8 -125 -11 -125
-3 0 4 30 8 68 7 37 0 63 -2 57 -4z m630 -5 c-3 -5 -15 -10 -26 -10 -10 0 -19
5 -19 10 0 6 12 10 26 10 14 0 23 -4 19 -10z m-617 -32 c-2 -6 -11 -13 -19
-16 -11 -3 -11 -2 1 7 13 9 11 11 -6 11 -12 0 -28 -8 -35 -17 -12 -15 -12 -16
4 -10 10 4 27 3 37 -3 15 -8 19 -5 24 15 4 14 11 25 16 25 14 0 13 -4 -11 -44
l-20 -35 -105 0 c-57 0 -104 2 -104 5 0 4 12 21 28 39 26 33 29 34 110 34 60
1 83 -2 80 -11z"/>
<path d="M2510 3190 c0 -5 5 -10 10 -10 6 0 10 5 10 10 0 6 -4 10 -10 10 -5 0
-10 -4 -10 -10z"/>
<path d="M1864 1405 c11 -8 22 -12 25 -9 6 6 -19 24 -34 24 -5 -1 -1 -7 9 -15z"/>
<path d="M2000 1401 c16 -11 8 -16 -40 -24 l-25 -4 26 -2 c15 0 40 6 55 14 16
8 24 15 17 15 -6 0 -20 3 -30 6 -15 5 -15 4 -3 -5z"/>
<path d="M1905 1390 c3 -5 8 -10 11 -10 2 0 4 5 4 10 0 6 -5 10 -11 10 -5 0
-7 -4 -4 -10z"/>
<path d="M3540 1536 c0 -8 60 -12 72 -4 8 4 -4 8 -29 8 -24 0 -43 -2 -43 -4z"/>
<path d="M1465 1450 c-3 -5 1 -10 10 -10 9 0 13 5 10 10 -3 6 -8 10 -10 10 -2
0 -7 -4 -10 -10z"/>
<path d="M1442 3750 c2 -27 6 -30 35 -30 31 0 33 2 31 30 -2 27 -6 30 -35 30
-31 0 -33 -2 -31 -30z"/>
<path d="M3690 3753 c0 -12 5 -25 10 -28 13 -8 13 15 0 35 -8 12 -10 11 -10
-7z"/>
<path d="M3440 3710 l0 -40 40 0 40 0 0 40 0 40 -40 0 -40 0 0 -40z"/>
<path d="M3721 3714 c0 -11 3 -14 6 -6 3 7 2 16 -1 19 -3 4 -6 -2 -5 -13z"/>
<path d="M1303 3665 c0 -27 2 -38 4 -22 2 15 2 37 0 50 -2 12 -4 0 -4 -28z"/>
<path d="M1345 3700 l-30 -8 28 -1 c23 -1 27 -5 27 -30 0 -25 -5 -30 -27 -34
-24 -3 -23 -4 7 -5 35 -2 35 -2 35 43 0 25 -2 44 -5 44 -3 -1 -18 -5 -35 -9z"/>
<path d="M3463 3593 c9 -2 17 -8 17 -13 0 -5 10 -11 23 -13 21 -4 21 -4 -3 -7
l-25 -2 25 -8 25 -8 -27 -1 c-22 -1 -28 3 -28 21 0 26 -9 19 -15 -11 -3 -19 1
-21 36 -21 38 0 39 1 39 35 0 35 0 35 -42 34 -24 -1 -35 -3 -25 -6z"/>
<path d="M1410 3455 l0 -85 85 0 c98 0 97 -1 93 105 l-3 60 -87 3 -88 3 0 -86z"/>
<path d="M3620 3420 l0 -80 74 0 74 0 4 76 c2 42 1 78 -1 80 -2 2 -37 4 -78 4
l-73 0 0 -80z"/>
<path d="M1214 3366 c-3 -8 -4 -29 -2 -47 4 -32 6 -33 49 -33 l44 0 3 47 3 47
-46 0 c-30 0 -47 -5 -51 -14z"/>
<path d="M3499 3278 c-7 -28 -7 -118 1 -118 5 0 11 24 12 53 1 43 2 45 5 15 3
-29 9 -38 23 -38 23 0 50 42 31 48 -22 7 -10 24 14 19 16 -3 24 0 22 7 -3 9
-105 23 -108 14z"/>
<path d="M1610 3250 c0 -13 7 -20 20 -20 13 0 20 7 20 20 0 13 -7 20 -20 20
-13 0 -20 -7 -20 -20z"/>
<path d="M1360 3178 l0 -58 59 0 58 0 2 60 2 60 -61 -2 -60 -3 0 -57z"/>
<path d="M3587 3184 c-3 -4 -21 -10 -39 -14 -31 -8 -31 -8 15 -9 36 -1 47 3
47 14 0 15 -12 20 -23 9z"/>
<path d="M3580 3070 c0 -27 3 -30 30 -30 27 0 30 3 30 30 0 27 -3 30 -30 30
-27 0 -30 -3 -30 -30z"/>
<path d="M3390 3040 l0 -50 55 0 55 0 0 50 0 50 -55 0 -55 0 0 -50z"/>
<path d="M1564 3060 c0 -14 7 -20 23 -20 16 0 23 6 23 20 0 14 -7 20 -23 20
-16 0 -23 -6 -23 -20z"/>
<path d="M1010 2925 l0 -125 128 0 127 0 0 125 0 125 -127 0 -128 0 0 -125z"/>
<path d="M1480 2887 l0 -73 79 -3 79 -2 4 75 3 76 -82 0 -83 0 0 -73z m30 -2
c0 -30 -4 -55 -10 -55 -5 0 -10 25 -10 55 0 30 5 55 10 55 6 0 10 -25 10 -55z
m84 21 c-4 -20 -3 -26 5 -22 7 5 11 -5 11 -28 0 -36 0 -36 -45 -36 l-45 0 0
60 0 60 40 -2 c39 -3 40 -4 34 -32z m36 -43 c0 -25 -2 -44 -4 -42 -8 10 -13
89 -5 89 5 0 9 -21 9 -47z"/>
<path d="M1578 2833 c7 -3 16 -2 19 1 4 3 -2 6 -13 5 -11 0 -14 -3 -6 -6z"/>
<path d="M3460 2899 c0 -38 1 -39 38 -39 l39 0 -6 38 c-6 34 -9 37 -39 38 -31
1 -32 -1 -32 -37z m53 -26 c-7 -2 -21 -2 -30 0 -10 3 -4 5 12 5 17 0 24 -2 18
-5z"/>
<path d="M1342 2694 l3 -66 65 0 65 0 0 63 0 64 -68 3 -68 3 3 -67z"/>
<path d="M1440 2520 c0 -27 3 -30 33 -30 32 0 33 2 29 30 -4 25 -9 30 -33 30
-26 0 -29 -4 -29 -30z"/>
<path d="M1460 1500 c0 -6 11 -8 28 -4 39 10 40 14 4 14 -18 0 -32 -5 -32 -10z"/>
<path d="M4228 1503 c29 -2 74 -2 100 0 26 2 2 3 -53 3 -55 0 -76 -1 -47 -3z"/>
<path d="M3555 1371 c-3 -2 42 -28 99 -57 l104 -54 151 0 c94 0 151 4 151 10
0 6 -4 10 -10 10 -5 0 -33 11 -62 24 -139 64 -156 68 -296 69 -74 1 -135 0
-137 -2z"/>
<path d="M1193 1355 c-18 -8 -33 -19 -33 -24 0 -6 -6 -8 -14 -5 -8 3 -31 -4
-53 -15 -34 -18 -36 -20 -13 -21 20 0 22 -2 10 -10 -10 -7 20 -10 95 -9 89 0
117 3 145 19 41 23 23 27 -20 5 -32 -16 -42 -3 -12 15 14 8 12 9 -10 4 -28 -6
-34 3 -29 44 2 16 -26 15 -66 -3z m2 -34 c-3 -6 -11 -8 -17 -5 -6 4 -5 9 3 15
16 10 23 4 14 -10z m-7 -28 c-16 -2 -40 -2 -55 0 -16 2 -3 4 27 4 30 0 43 -2
28 -4z"/>
<path d="M1285 1360 c3 -5 24 -8 45 -7 21 2 37 0 34 -5 -3 -4 4 -8 16 -8 12 0
18 -5 15 -10 -5 -8 54 21 74 37 2 2 -39 3 -93 3 -62 0 -95 -4 -91 -10z"/>
<path d="M1271 1336 c9 -8 98 -13 93 -5 -3 5 -26 9 -51 9 -26 0 -44 -2 -42 -4z"/>
<path d="M1435 1315 c-34 -21 -37 -24 -17 -25 27 0 82 27 82 40 0 16 -23 11
-65 -15z"/>
<path d="M1560 1319 c0 -6 7 -9 15 -6 8 4 17 2 20 -3 7 -11 35 -2 35 11 0 5
-16 9 -35 9 -19 0 -35 -5 -35 -11z"/>
<path d="M3567 1323 c-9 -9 114 -78 132 -75 7 2 11 0 8 -5 -3 -5 7 -16 23 -25
27 -15 28 -15 23 0 -6 15 -4 15 14 0 11 -10 26 -18 34 -18 8 0 -6 12 -31 26
-25 15 -75 44 -111 65 -66 39 -80 44 -92 32z m119 -64 c3 -5 -11 0 -30 12 -20
12 -39 25 -42 30 -3 5 11 0 30 -12 20 -12 39 -25 42 -30z"/>
<path d="M1501 1294 l-34 -24 47 0 c43 0 76 16 76 36 0 5 -5 3 -11 -3 -6 -6
-20 -8 -31 -5 -15 4 -17 7 -6 13 7 5 9 8 3 8 -5 0 -25 -12 -44 -25z m59 -10
c0 -2 -12 -4 -26 -4 -14 0 -23 4 -20 9 6 8 46 4 46 -5z"/>
<path d="M3434 1295 c11 -12 58 -47 103 -78 79 -56 83 -57 148 -57 52 0 76 -5
102 -22 28 -16 49 -21 99 -19 67 2 97 -9 220 -83 32 -20 63 -36 69 -36 14 0
-48 40 -137 88 -69 38 -84 42 -145 42 -51 0 -75 5 -98 20 -23 15 -47 20 -102
20 -52 0 -76 4 -87 16 -22 21 -20 27 5 19 19 -6 20 -5 8 8 -10 10 -18 12 -26
5 -8 -7 -19 -5 -34 6 -20 14 -21 16 -5 22 15 6 15 7 -1 20 -24 18 -5 17 27 -1
14 -8 30 -14 35 -14 6 -1 -12 12 -39 28 -49 29 -49 29 -65 9 -17 -20 -17 -20
-41 2 l-25 22 28 -16 c24 -15 32 -11 25 11 -2 4 -22 8 -44 8 l-41 1 21 -21z
m100 -20 c-4 -8 -1 -15 7 -15 7 0 10 -2 7 -5 -3 -3 -12 -3 -21 1 -16 6 -13 34
4 34 4 0 6 -7 3 -15z"/>
<path d="M1020 1280 c-12 -8 -10 -10 8 -10 13 0 20 4 17 10 -7 12 -6 12 -25 0z"/>
<path d="M3575 1240 c-3 -5 -1 -10 4 -10 6 0 11 5 11 10 0 6 -2 10 -4 10 -3 0
-8 -4 -11 -10z"/>
<path d="M2648 1235 c-3 -4 -2 -21 2 -38 5 -18 14 -51 20 -74 9 -37 14 -42 35
-41 14 1 25 5 25 8 0 3 -11 37 -23 76 -21 62 -42 86 -59 69z"/>
<path d="M3646 1209 c3 -5 17 -9 31 -9 32 0 24 11 -11 14 -14 2 -23 -1 -20 -5z"/>
<path d="M2279 1168 c-1 -2 -3 -12 -4 -23 -2 -11 -6 -28 -10 -37 -6 -16 -1
-18 38 -18 36 0 46 4 50 19 4 16 -2 21 -35 26 -28 5 -38 11 -34 21 4 11 0 21
-5 12z"/>
<path d="M2370 1140 c0 -11 5 -20 10 -20 6 0 10 9 10 20 0 11 -4 20 -10 20 -5
0 -10 -9 -10 -20z"/>
<path d="M968 1068 c-59 -34 -106 -64 -103 -66 2 -3 51 21 107 54 70 39 119
60 153 65 l50 6 -50 1 c-44 1 -64 -7 -157 -60z"/>
<path d="M2045 1100 l50 -7 -52 -1 c-30 -1 -53 -7 -53 -13 0 -6 19 -10 48 -9
73 3 74 2 67 -22 -6 -18 -5 -20 5 -12 8 8 9 20 4 35 -4 13 -7 27 -6 32 1 4
-24 6 -55 5 l-58 -1 50 -7z"/>
<path d="M2326 1054 c-4 -14 -5 -28 -3 -31 3 -2 8 8 11 23 4 14 5 28 3 31 -3
2 -8 -8 -11 -23z"/>
<path d="M3047 1050 c-3 -13 -1 -33 6 -44 10 -19 11 -19 15 -3 3 15 6 16 19 5
14 -11 15 -11 5 7 -6 11 -17 29 -25 39 -13 18 -14 18 -20 -4z m23 -20 c0 -5
-4 -10 -10 -10 -5 0 -10 5 -10 10 0 6 5 10 10 10 6 0 10 -4 10 -10z"/>
<path d="M2786 1027 c3 -10 9 -15 12 -12 3 3 0 11 -7 18 -10 9 -11 8 -5 -6z"/>
<path d="M2855 940 c25 -11 295 -11 295 0 0 4 -71 8 -157 8 -99 0 -151 -3
-138 -8z"/>
</g>
</svg>
